Coordinates
version=1
nRows=16
nColumns=63
inDegrees=yes

Units are S.I. units (second, meters, Newtons, ...)
If the header above contains a line with 'inDegrees', this indicates whether rotational values are in degrees (yes) or radians (no).

endheader
time	pelvis_tilt	pelvis_list	pelvis_rotation	pelvis_tx	pelvis_ty	pelvis_tz	hip_flexion_r	hip_adduction_r	hip_rotation_r	knee_angle_r	knee_angle_r_beta	ankle_angle_r	subtalar_angle_r	mtp_angle_r	hip_flexion_l	hip_adduction_l	hip_rotation_l	knee_angle_l	knee_angle_l_beta	ankle_angle_l	subtalar_angle_l	mtp_angle_l	L5_S1_Flex_Ext	L5_S1_Lat_Bending	L5_S1_axial_rotation	L4_L5_Flex_Ext	L4_L5_Lat_Bending	L4_L5_axial_rotation	L3_L4_Flex_Ext	L3_L4_Lat_Bending	L3_L4_axial_rotation	L2_L3_Flex_Ext	L2_L3_Lat_Bending	L2_L3_axial_rotation	L1_L2_Flex_Ext	L1_L2_Lat_Bending	L1_L2_axial_rotation	L1_T12_Flex_Ext	L1_T12_Lat_Bending	L1_T12_axial_rotation	Abs_r3	Abs_r2	Abs_r1	Abs_t1	Abs_t2	neck_flexion	neck_bending	neck_rotation	arm_flex_r	arm_add_r	arm_rot_r	elbow_flex_r	pro_sup_r	wrist_flex_r	wrist_dev_r	arm_flex_l	arm_add_l	arm_rot_l	elbow_flex_l	pro_sup_l	wrist_flex_l	wrist_dev_l
0.000000	0.693795	-4.503178	88.912525	0.216900	0.790664	0.716481	4.679479	0.153099	-17.725756	11.196741	0.195420	28.951371	17.464713	0.000000	0.194564	-0.563721	2.341687	6.573654	0.114732	19.565962	-6.658628	0.000000	0.074161	0.059028	0.537709	0.137725	0.078507	0.571316	0.121840	0.143521	0.571316	0.084759	0.143521	0.470495	0.068866	0.120370	0.436889	0.042376	0.091434	0.403282	0.529727	0.667737	2.990577	0.000000	0.000000	-0.651926	0.393470	-14.089061	5.979181	-34.203567	61.811996	108.080893	86.498261	-3.577473	1.171003	30.013789	-30.829913	72.003438	106.932258	88.986868	12.676399	15.277923
0.016949	0.614568	-4.409877	89.044660	0.216949	0.791485	0.716000	4.507257	0.042823	-18.133147	11.220806	0.195840	28.529388	17.468818	0.000000	0.059006	-0.503478	2.289212	6.543476	0.114205	19.725350	-5.685600	0.000000	0.068935	0.049294	0.488521	0.128019	0.065561	0.519054	0.113253	0.119854	0.519054	0.078786	0.119854	0.427456	0.064013	0.100520	0.396923	0.039389	0.076356	0.366391	0.492396	0.557624	2.717007	0.000000	0.000000	-0.936403	0.451348	-13.826314	6.499731	-33.586670	62.705390	107.602447	88.280304	-6.000455	2.345771	29.783146	-30.840506	71.852757	106.613665	88.762601	13.062544	15.479774
0.033898	0.556805	-4.335844	89.158377	0.216963	0.792167	0.715597	4.369719	-0.041424	-18.469236	11.248266	0.196319	28.214747	17.475302	0.000000	-0.040966	-0.464400	2.147081	6.545928	0.114248	19.870893	-4.815183	0.000000	0.065179	0.042295	0.452706	0.121045	0.056253	0.481000	0.107083	0.102837	0.481000	0.074494	0.102837	0.396118	0.060526	0.086249	0.367823	0.037244	0.065516	0.339529	0.465570	0.478454	2.517814	0.000000	0.000000	-1.173109	0.504511	-13.631183	6.849654	-33.088578	63.323751	107.216779	89.674045	-7.800212	3.273583	29.615769	-30.852708	71.780638	106.361644	88.575011	13.340399	15.593801
0.050847	0.518039	-4.279700	89.253520	0.216948	0.792719	0.715266	4.264550	-0.102410	-18.738247	11.278865	0.196853	27.996816	17.483621	0.000000	-0.108499	-0.444013	1.923498	6.577107	0.114792	20.003388	-4.039001	0.000000	0.062775	0.037732	0.429036	0.116579	0.050183	0.455851	0.103132	0.091741	0.455851	0.071745	0.091741	0.375406	0.058293	0.076943	0.348592	0.035869	0.058447	0.321777	0.448393	0.426831	2.386169	0.000000	0.000000	-1.365295	0.552346	-13.497010	7.047451	-32.699210	63.695744	106.916006	90.683640	-9.036984	3.972841	29.504835	-30.866491	71.776124	106.170977	88.421842	13.518113	15.629685
0.067797	0.495801	-4.240065	89.329928	0.216909	0.793152	0.715004	4.189436	-0.142907	-18.944404	11.312347	0.197438	27.864965	17.493232	0.000000	-0.146741	-0.439847	1.626667	6.633115	0.115770	20.123629	-3.348678	0.000000	0.061601	0.035304	0.416284	0.114399	0.046954	0.442301	0.101204	0.085838	0.442301	0.070403	0.085838	0.364248	0.057202	0.071991	0.338230	0.035199	0.054686	0.312213	0.440007	0.399363	2.315244	0.000000	0.000000	-1.516214	0.594240	-13.417134	7.111624	-32.408482	63.850032	106.692243	91.313247	-9.771006	4.461949	29.443522	-30.881826	71.828261	106.036442	88.300836	13.603835	15.597108
0.084746	0.487622	-4.215559	89.387445	0.216851	0.793474	0.714807	4.142061	-0.165684	-19.091930	11.348456	0.198068	27.808560	17.503590	0.000000	-0.158841	-0.449430	1.264790	6.710050	0.117112	20.232413	-2.735839	0.000000	0.061538	0.034711	0.413221	0.114281	0.046165	0.439047	0.101100	0.084396	0.439047	0.070331	0.084396	0.361568	0.057144	0.070782	0.335742	0.035163	0.053767	0.309916	0.439556	0.392655	2.298211	0.000000	0.000000	-1.629118	0.629579	-13.384896	7.060674	-32.206311	63.815279	106.537609	91.567022	-10.062518	4.759308	29.425008	-30.898685	71.926091	105.952821	88.209737	13.605712	15.505748
0.101695	0.491034	-4.204803	89.425911	0.216780	0.793695	0.714669	4.120111	-0.173511	-19.185049	11.386936	0.198740	27.816973	17.514150	0.000000	-0.147945	-0.470290	0.846071	6.804013	0.118752	20.330533	-2.192109	0.000000	0.062465	0.035653	0.418621	0.116004	0.047418	0.444784	0.102624	0.086686	0.444784	0.071392	0.086686	0.366293	0.058005	0.072703	0.340129	0.035693	0.055226	0.313965	0.446184	0.403312	2.328242	0.000000	0.000000	-1.707261	0.657751	-13.393635	6.913103	-32.082613	63.620149	106.444219	91.449121	-9.971756	4.883322	29.442469	-30.917042	72.058660	105.914892	88.146288	13.531893	15.365288
0.118644	0.503570	-4.206418	89.445169	0.216700	0.793826	0.714588	4.121272	-0.169156	-19.227984	11.427531	0.199448	27.879571	17.524368	0.000000	-0.117203	-0.499956	0.378714	6.911102	0.120621	20.418786	-1.709111	0.000000	0.064264	0.037830	0.431254	0.119345	0.050314	0.458208	0.105580	0.091980	0.458208	0.073448	0.091980	0.377348	0.059676	0.077143	0.350394	0.036721	0.058599	0.323441	0.459033	0.427941	2.398508	0.000000	0.000000	-1.753894	0.678141	-13.436690	6.687412	-32.027307	63.293305	106.404189	90.963703	-9.558958	4.852394	29.489083	-30.936867	72.215012	105.917436	88.108231	13.390525	15.185407
0.135593	0.522761	-4.219023	89.445060	0.216618	0.793875	0.714558	4.143228	-0.155392	-19.224958	11.469985	0.200189	27.985723	17.533700	0.000000	-0.069762	-0.535956	-0.129078	7.027417	0.122652	20.497967	-1.278471	0.000000	0.066814	0.040942	0.449895	0.124080	0.054453	0.478013	0.109769	0.099547	0.478013	0.076362	0.099547	0.393658	0.062044	0.083490	0.365540	0.038178	0.063420	0.337421	0.477247	0.463148	2.502180	0.000000	0.000000	-1.772270	0.690136	-13.507403	6.402103	-32.030307	62.863411	106.409636	90.114923	-8.884361	4.684926	29.558028	-30.958134	72.384190	105.955233	88.093311	13.189758	14.975787
0.152542	0.546139	-4.241241	89.425425	0.216538	0.793854	0.714576	4.183664	-0.134986	-19.180196	11.514041	0.200958	28.124798	17.541601	0.000000	-0.008769	-0.575820	-0.669101	7.149057	0.124775	20.568871	-0.891812	0.000000	0.069995	0.044690	0.473314	0.129988	0.059437	0.502896	0.114995	0.108658	0.502896	0.079997	0.108658	0.414150	0.064998	0.091131	0.384568	0.039995	0.069224	0.354986	0.499969	0.505538	2.632432	0.000000	0.000000	-1.765642	0.693123	-13.599113	6.075677	-32.081531	62.359131	106.452676	88.906938	-8.008204	4.399323	29.642480	-30.980814	72.555239	106.023062	88.099271	12.937738	14.746107
0.169492	0.571235	-4.271690	89.386108	0.216466	0.793771	0.714638	4.240266	-0.110709	-19.097922	11.559445	0.201750	28.286166	17.547527	0.000000	0.062626	-0.617074	-1.233152	7.272123	0.126922	20.632295	-0.540760	0.000000	0.073687	0.048772	0.500285	0.136845	0.064867	0.531553	0.121061	0.118584	0.531553	0.084217	0.118584	0.437749	0.068426	0.099456	0.406481	0.042105	0.075548	0.375214	0.526342	0.551718	2.782434	0.000000	0.000000	-1.737261	0.686488	-13.705159	5.726635	-32.170897	61.809128	106.525426	87.343906	-6.990723	4.013985	29.735616	-31.004879	72.717203	106.115704	88.123853	12.642616	14.506048
0.186441	0.607526	-4.303782	89.318443	0.216348	0.793649	0.714760	4.307282	-0.078278	-18.990734	11.604973	0.202545	28.456025	17.549489	0.000000	0.132598	-0.669614	-1.861981	7.382390	0.128847	20.715911	-0.074541	0.000000	0.077069	0.055353	0.529498	0.143125	0.073619	0.562592	0.126617	0.134585	0.562592	0.088083	0.134585	0.463311	0.071567	0.112875	0.430217	0.044037	0.085741	0.397124	0.550498	0.626162	2.944911	0.000000	0.000000	-1.701162	0.668619	-13.753236	5.384748	-32.347882	61.277207	106.645582	84.255834	-5.734518	3.607283	29.810612	-30.999771	72.837037	106.207393	88.178587	12.304397	14.312773
0.203390	0.618806	-4.347699	89.208960	0.216331	0.793472	0.714901	4.391952	-0.064010	-18.827722	11.650627	0.203342	28.606215	17.546803	0.000000	0.207487	-0.697758	-2.513420	7.483833	0.130618	20.752727	0.306339	0.000000	0.080532	0.058142	0.558366	0.149557	0.077329	0.593263	0.132307	0.141367	0.593263	0.092041	0.141367	0.488570	0.074782	0.118564	0.453672	0.046016	0.090063	0.418774	0.575235	0.657719	3.105462	0.000000	0.000000	-1.647882	0.620460	-13.864536	5.079113	-32.490069	60.777281	106.744506	80.599233	-4.548534	3.000753	29.877220	-31.036396	72.898563	106.331428	88.241036	11.973856	14.110890
0.220339	0.620576	-4.407971	89.091027	0.216343	0.793250	0.715061	4.497116	-0.057384	-18.647873	11.698923	0.204185	28.732661	17.541530	0.000000	0.296559	-0.715090	-3.103888	7.576228	0.132230	20.762347	0.592825	0.000000	0.085999	0.060598	0.574909	0.159708	0.080595	0.610841	0.141287	0.147337	0.610841	0.098288	0.147337	0.503045	0.079858	0.123571	0.467114	0.049140	0.093866	0.431182	0.614280	0.685494	3.197472	0.000000	0.000000	-1.595869	0.528536	-13.890388	4.904367	-32.597069	60.421375	106.831899	77.300682	-3.713426	2.359091	29.853196	-31.111601	72.827221	106.480809	88.312426	11.626111	13.917145
0.237288	0.608782	-4.475138	88.938008	0.216423	0.793000	0.715243	4.616153	-0.059663	-18.411391	11.750437	0.205084	28.829947	17.510500	0.000000	0.386640	-0.719156	-3.691714	7.654386	0.133594	20.776590	0.864186	0.000000	0.092647	0.060891	0.596818	0.172056	0.080986	0.634119	0.152210	0.148051	0.634119	0.105887	0.148051	0.522216	0.086032	0.124170	0.484914	0.052939	0.094321	0.447613	0.661771	0.688816	3.319321	0.000000	0.000000	-1.542693	0.432321	-13.975245	4.759075	-32.666464	60.116776	106.892636	74.541744	-3.127896	1.661424	29.847815	-31.176290	72.743862	106.626558	88.382619	11.276624	13.758706
0.254237	0.584423	-4.530921	88.780408	0.216540	0.792764	0.715480	4.726188	-0.075499	-18.190137	11.801144	0.205969	28.902125	17.498278	0.000000	0.465845	-0.711123	-4.248700	7.719988	0.134739	20.809530	1.150602	0.000000	0.098161	0.059101	0.620932	0.182294	0.078604	0.659740	0.161268	0.143698	0.659740	0.112188	0.143698	0.543315	0.091152	0.120518	0.504507	0.056089	0.091547	0.465699	0.701152	0.668560	3.453437	0.000000	0.000000	-1.500810	0.339084	-14.103601	4.679991	-32.709890	59.963013	106.920236	72.375125	-2.930700	0.939931	29.870154	-31.220143	72.648406	106.745496	88.465255	10.936040	13.594794
